<svg width="24" height="24" viewBox="0 0 24 24" fill="none" xmlns="http://www.w3.org/2000/svg">
<g clip-path="url(#clip0)">
<path d="M21.7442 5.36444L21.2143 3.776C21.0125 3.17102 20.4483 2.76453 19.8108 2.76453H15.3571V1.31451C15.3571 0.589783 14.7678 0 14.0433 0H9.96481C9.24044 0 8.65103 0.589783 8.65103 1.31451V2.76453H4.19754C3.55978 2.76453 2.99563 3.17102 2.79385 3.776L2.26394 5.36444C2.14328 5.72607 2.20443 6.12653 2.42727 6.43579C2.65011 6.74506 3.01065 6.92981 3.39187 6.92981H3.94577L5.16488 22.0051C5.25552 23.1237 6.20474 24 7.32626 24H16.9292C18.0506 24 19 23.1237 19.0904 22.0049L20.3095 6.92981H20.6162C20.9975 6.92981 21.358 6.74506 21.5808 6.43597C21.8037 6.12671 21.8648 5.72607 21.7442 5.36444ZM10.0573 1.40625H13.9508V2.76453H10.0573V1.40625ZM17.6887 21.8915C17.6569 22.2854 17.3233 22.5938 16.9292 22.5938H7.32626C6.93222 22.5938 6.5986 22.2854 6.56674 21.8915L5.35659 6.92981H18.8987L17.6887 21.8915ZM3.69345 5.52356L4.12796 4.22095C4.13784 4.19092 4.16586 4.17078 4.19754 4.17078H19.8108C19.8424 4.17078 19.8703 4.19092 19.8803 4.22095L20.3148 5.52356H3.69345Z" fill="white"/>
<path d="M15.4461 21.8417C15.4585 21.8425 15.4708 21.8427 15.4833 21.8427C15.8548 21.8427 16.1653 21.5515 16.1847 21.1762L16.845 8.50123C16.8652 8.11341 16.5671 7.78254 16.1794 7.7624C15.7907 7.74171 15.4609 8.04017 15.4406 8.42799L14.7805 21.1029C14.7604 21.4907 15.0583 21.8216 15.4461 21.8417Z" fill="white"/>
<path d="M7.85457 21.1778C7.87508 21.5526 8.18526 21.8427 8.55605 21.8427C8.56886 21.8427 8.58205 21.8423 8.59505 21.8416C8.98268 21.8205 9.27986 21.4891 9.2588 21.1013L8.56722 8.42633C8.54616 8.03852 8.21474 7.74134 7.82692 7.76258C7.43929 7.78363 7.14211 8.11505 7.16316 8.50287L7.85457 21.1778Z" fill="white"/>
<path d="M12.012 21.8427C12.4003 21.8427 12.7151 21.5279 12.7151 21.1395V8.4646C12.7151 8.07623 12.4003 7.76147 12.012 7.76147C11.6236 7.76147 11.3088 8.07623 11.3088 8.4646V21.1395C11.3088 21.5279 11.6236 21.8427 12.012 21.8427Z" fill="white"/>
</g>
<defs>
<clipPath id="clip0">
<rect width="24" height="24" fill="white"/>
</clipPath>
</defs>
</svg>
