<svg width="36" height="36" viewBox="0 0 36 36" fill="none" xmlns="http://www.w3.org/2000/svg">
<path d="M24.2285 30.6458L23.7134 31.4223H24.6451H25.0524C25.2829 31.4223 25.4794 31.6032 25.4795 31.8893C25.4795 31.8894 25.4795 31.8894 25.4795 31.8894V32.9774C25.4795 33.2173 25.3057 33.4112 25.072 33.44L24.6332 33.4941V33.9363V35.4999H11.3672V33.9363V33.4941L10.9283 33.44C10.6947 33.4112 10.5209 33.2173 10.5209 32.9774V31.8893C10.5209 31.6573 10.7436 31.4221 11.0283 31.4221H11.4457H12.3774L11.8623 30.6457C11.6153 30.2735 11.0538 29.2033 11.9191 28.1433C12.4894 27.4447 13.2716 26.2094 13.9021 24.7668C14.5312 23.3275 15.0308 21.6332 14.9861 20.0273L14.9725 19.5413H14.4863H14.0508C13.7661 19.5413 13.5433 19.3061 13.5433 19.0741V18.9532C13.5433 18.6952 13.7525 18.486 14.0105 18.486V17.986V17.486C13.7525 17.486 13.5433 17.2768 13.5433 17.0188V16.8979C13.5433 16.6659 13.7661 16.4307 14.0508 16.4307H14.6101H15.0648L15.1078 15.978C15.3629 13.291 14.9807 10.6271 14.3506 9.1279C14.1043 8.542 13.8029 8.09131 13.5083 7.74711L13.3586 7.57228H13.1285H12.8418C12.5571 7.57228 12.3344 7.33711 12.3344 7.1051V6.9842C12.3344 6.75218 12.5571 6.51701 12.8418 6.51701H14.1475H14.5716L14.6408 6.09859C14.8312 4.94718 15.5934 3.98732 16.6276 3.52181L17.1711 3.27712L16.8356 2.78443C16.676 2.54999 16.5827 2.2679 16.5827 1.96243C16.5827 1.15475 17.2374 0.5 18.0454 0.5C18.8533 0.5 19.5078 1.15465 19.5078 1.96255C19.5078 2.26893 19.4139 2.55195 19.2531 2.78699L18.9166 3.27895L19.4596 3.52475C20.4905 3.99144 21.2499 4.94983 21.44 6.09875L21.5092 6.51713H21.9333H23.1181C23.3486 6.51713 23.545 6.69802 23.545 6.98432V7.10522C23.545 7.39152 23.3486 7.57241 23.1181 7.57241H22.9523H22.7222L22.5725 7.74723C22.2778 8.09143 21.9765 8.54212 21.7302 9.12802C21.1 10.6272 20.7178 13.2911 20.9729 15.9781L21.0159 16.4308H21.4707H22.03C22.2605 16.4308 22.4569 16.6117 22.4569 16.898V17.0189C22.4569 17.2769 22.2477 17.4861 21.9897 17.4861V17.9861V18.4861C22.2477 18.4861 22.4569 18.6953 22.4569 18.9533V19.0742C22.4569 19.3605 22.2605 19.5414 22.03 19.5414H21.6045H21.1182L21.1047 20.0275C21.0601 21.6334 21.5597 23.3277 22.1888 24.767C22.8193 26.2095 23.6016 27.4448 24.1717 28.1434L24.1717 28.1434C25.0371 29.2035 24.4755 30.2736 24.2285 30.6458Z" stroke="white"/>
</svg>
